<?xml version="1.0" encoding="utf-8"?>
<!-- Generator: Adobe Illustrator 26.0.3, SVG Export Plug-In . SVG Version: 6.00 Build 0)  -->
<svg version="1.1" id="Layer_1" xmlns="http://www.w3.org/2000/svg" xmlns:xlink="http://www.w3.org/1999/xlink" x="0px" y="0px"
	 viewBox="0 0 300 300" style="enable-background:new 0 0 300 300;" xml:space="preserve">
<style type="text/css">
	.st0{opacity:0.25;enable-background:new    ;}
	.st1{fill:#FCFFD4;}
	.st2{fill:#FFD4D6;}
	.st3{fill:#D4EAFF;}
</style>
<polygon class="st0" points="266,211.6 255.1,51.9 128.9,60.6 40.9,56.2 34,194.3 52.2,217 82.4,218.5 86,274.8 245.6,264.7 
	242.3,213.2 "/>
<rect x="96.7" y="49.2" transform="matrix(0.9977 -6.808554e-02 6.808554e-02 0.9977 -8.3868 12.3309)" class="st1" width="160" height="160"/>
<polygon class="st2" points="38,186.3 44.9,48.2 158.2,53.8 150.1,213.7 56.2,209 "/>
<polygon class="st3" points="237.7,131.8 245.6,256.7 86,266.8 77.2,128.9 191.8,121.7 "/>
<path d="M264.1,205.4L252.9,41.8l-124.7,8.5L43,46.1L36,187l19.2,24l25.3,1.3l3.6,56.7l163.6-10.4l-3.3-51.8L264.1,205.4z
	 M259.8,201.7l-15.6,1.1l-4.6-72.6L192,119.7l-35.2,2.2l3.5-69.8l88.9-6.1L259.8,201.7z M223.4,130.7l-29,1.9l-0.5-8.4L223.4,130.7z
	 M42.3,188.5l12.9,0.6l-0.7,14.5L42.3,188.5z M58.3,207.1l1-19.8c0-0.5-0.2-1.1-0.5-1.4c-0.4-0.4-0.9-0.6-1.4-0.7l-17.3-0.8
	l6.7-134.1l109.3,5.4l-3.4,66.5L75.1,127l5.2,81.2L58.3,207.1z M87.9,264.7l-8.5-133.9l110.6-6.9l0.7,11c0,0.5,0.3,1,0.7,1.4
	c0.4,0.3,0.8,0.5,1.3,0.5c0,0,0.1,0,0.1,0l43.1-2.8l7.6,120.9L87.9,264.7z"/>
<path d="M165.9,70.5l6-0.9l0,0.9c0.1,1,0.1,2,0.1,3c3.6-1.5,7.3-3,10.9-4.4l0.7-0.3l2.9,5.3l-0.9,0.4c-4.5,1.7-8.9,3.5-13.2,5.5
	c0.1,0.8,0.1,1.7,0.2,2.5c0.3,4,0.7,8,1.1,11.9l0,0.6l-6.4,1.7l-0.1-1.1c-0.2-2.1-0.4-4.2-0.5-6.4c-0.4-6.1-0.7-12.2-0.8-18.3
	L165.9,70.5z M217,90.8c-3.6,2.1-8.8,3.9-13.3,4.1c-2.3,0.2-4.5,0-6.3-0.7c-2.2-0.7-3.9-2-5.1-4l0-0.1c-0.8-1.3-1.2-2.8-1.3-4.6
	c-0.3-4.3,0.8-7.9,2.6-10.8c2.2-3.4,5.4-5.8,8.6-6.8c1.1-0.3,2.3-0.5,3.5-0.6c2.6-0.2,5.2,0.4,7.3,1.7c2.3,1.3,4.1,3.3,5,6.1
	c0.3,0.9,0.5,1.8,0.6,2.9l0.1,2.5l-2.4,0.6c-3.3,0.8-6.5,1.8-9.5,3c-2.9,1-5.9,2.2-8.7,3.5c0.4,0.4,0.9,0.7,1.5,1
	c1.1,0.3,2.4,0.5,3.9,0.4c3.6-0.2,7.7-1.7,10.7-3.3L217,90.8z M197.5,80.9c2.2-1,4.6-1.9,7-2.8c2.3-0.9,4.7-1.6,7.1-2.3
	c-0.4-0.7-1-1.2-1.6-1.6c-1.1-0.6-2.5-0.9-3.9-0.9c-0.6,0-1.3,0.2-1.9,0.4c-2,0.6-4,2-5.3,4.2C198.2,78.8,197.8,79.8,197.5,80.9z
	 M228.4,59.1l6-1.1l0.1,1.2c0.1,1.9,0.1,3.9,0.2,5.9c2-0.6,4.1-1.1,6.2-1.7l1.3,6.1c-2.3,0.5-4.8,1.2-7.2,1.9
	c0.1,1.1,0.2,2.2,0.2,3.4c0.4,5.2,0.9,10.4,1.4,15.6l0.1,0.8l-6.4,2.1l-0.2-1.4c-0.1-1.8-0.2-3.6-0.4-5.4c-0.3-4.4-0.6-8.8-0.8-13.2
	c-1.6,0.6-3.1,1.1-4.6,1.7l-2.2-5.8c2.2-0.8,4.4-1.6,6.5-2.3c-0.1-2.3-0.2-4.6-0.2-7L228.4,59.1z M80.3,64.6c-1.8-1-3.8-1.7-5.8-1.9
	c-1.8-0.2-3.7-0.1-5.5,0.5c-1.3,0.5-2.7,1.4-3.7,2.7c-0.7,0.9-1.2,1.8-1.1,2.6c0.1,0.5,0.3,0.9,0.7,1.3c0.6,0.6,1.4,1.1,2.2,1.7
	c1.3,0.8,3.3,1.5,5.4,2.3c3.1,1.3,6.3,2.5,8.4,4.3c1.8,1.6,2.9,3.2,3.4,5c0.2,0.8,0.2,1.5,0.2,2.3c-0.1,1.3-0.4,2.5-1,3.7
	c-0.9,1.6-2.3,3.2-4.1,4.3c-2.8,1.8-6.5,2.9-10.4,2.8c-2.3,0-4.7-0.5-6.9-1.3c-2.8-1-5.3-2.3-6.7-3.3l3.6-5c1,0.7,2.9,1.8,5.2,2.5
	c1.6,0.5,3.3,1,5,1c2.5,0,5-0.7,6.8-1.8c1-0.6,1.7-1.4,2.1-2.1c0.3-0.4,0.4-1,0.2-1.5c-0.1-0.5-0.6-1.2-1.4-1.8
	c-1.3-1.1-4-2.2-6.7-3.3c-2.3-1-4.5-1.8-6.3-2.9c-1.3-0.8-2.6-1.7-3.5-2.9c-1.2-1.3-2-2.8-2.3-4.6c-0.3-2.6,0.6-5.1,2.3-7.2
	c1.7-2.1,4.3-3.9,6.6-4.7c2.7-0.9,5.4-1.1,8.1-0.7c2.8,0.3,5.6,1.2,8.1,2.6L80.3,64.6z M114.5,95.3c-3.9,1.7-9.2,2.8-13.7,2.5
	c-2.3-0.1-4.4-0.5-6.2-1.5c-2.1-1-3.6-2.5-4.6-4.6l0-0.1c-0.6-1.3-0.9-3-0.8-4.7c0.2-4.3,1.7-7.8,3.8-10.4c2.5-3.1,6-5.1,9.4-5.8
	c1.2-0.2,2.3-0.3,3.5-0.2c2.6,0.1,5.1,1,7,2.5c2.2,1.6,3.7,3.8,4.2,6.6c0.2,0.9,0.3,1.9,0.2,2.9l-0.2,2.5l-2.5,0.3
	c-3.4,0.4-6.7,1.1-9.8,1.8c-3,0.7-6.1,1.5-9,2.5c0.4,0.5,0.8,0.8,1.3,1.1c1.1,0.4,2.3,0.7,3.8,0.8c3.6,0.2,7.9-0.8,11-2.1
	L114.5,95.3z M96.2,83.3c2.3-0.7,4.8-1.4,7.2-1.9c2.4-0.6,4.9-1.1,7.3-1.5c-0.3-0.7-0.9-1.3-1.4-1.8c-1-0.7-2.4-1.2-3.8-1.3
	c-0.6,0-1.3,0-1.9,0.2c-2.1,0.4-4.2,1.6-5.8,3.6C97.2,81.2,96.6,82.2,96.2,83.3z M144.6,79.5c-1.4-0.4-2.8-0.6-4.1-0.6
	c-3.3,0-6.3,1.1-8.6,2.9c-2.3,1.7-3.9,3.9-4.5,5.9c-0.1,0.5-0.2,1.1-0.2,1.5c0.1,0.5,0.1,1,0.3,1.4c0.3,0.6,0.9,1,1.7,1.4
	c1.1,0.5,2.6,0.7,4.2,0.7c3.6-0.1,7.7-1,10.9-2.5l2.6,5.6c-3.9,1.9-9,3.1-13.5,3.1c-2.4,0-4.7-0.4-6.6-1.2c-2.2-0.9-4-2.4-4.9-4.5
	c-0.6-1.2-0.9-2.6-0.9-4.1c0-1,0.2-2.1,0.5-3.2c1-3.3,3.4-6.6,6.8-9c3.3-2.5,7.5-4.2,12.4-4.2c1.8,0,3.8,0.3,5.8,0.8L144.6,79.5z
	 M118.3,142.6l0-1l6-1.2l0,1.4c0.1,5.3,0.4,10.6,0.7,16c0.5,7.4,1.2,14.8,1.9,22.1l0.2,3.1l-0.2,0l-1.8-1.9l-0.4-0.4
	c-2.4-2.6-4.7-5.3-7-8c-2.4-2.8-4.7-5.7-7.1-8.6c-1-1.2-2.1-2.6-3-3.9c0.1,1.7,0.2,3.4,0.3,5.1c0.3,5.1,0.7,10.1,1.2,15.2l0.1,0.9
	l-6.4,2.2l-0.1-1.5c-0.4-4.8-0.7-9.7-1-14.6c-0.5-7.7-0.9-15.4-1.2-23.1l-0.1-3.3l0.2,0l1.7,2.1l0.4,0.4c3.2,3.9,6.4,7.9,9.6,11.9
	c2.3,3,4.8,6,7.1,8.9C118.9,157.3,118.5,150,118.3,142.6z M148.1,152c3.3-0.4,6.4,0.2,8.9,1.7c2.6,1.5,4.6,3.9,5.4,6.9
	c0.1,0.6,0.2,1.2,0.3,1.8c0.4,3.8-0.9,7.6-3.3,10.8c-2.4,3.1-5.9,5.5-10,6.6c-0.9,0.3-1.7,0.4-2.7,0.6c-3.3,0.4-6.4-0.3-8.9-1.7
	c-2.6-1.5-4.6-3.9-5.4-7c-0.2-0.5-0.3-1.1-0.3-1.8c-0.5-3.7,0.9-7.6,3.3-10.8c2.4-3.1,5.9-5.5,9.9-6.6
	C146.3,152.3,147.2,152,148.1,152z M147.1,158.4c-2.7,0.8-5.1,2.4-6.7,4.4c-1.5,1.9-2.3,4.2-2.1,6.3c0,0.3,0.1,0.6,0.2,0.9
	c0.4,1.4,1.2,2.5,2.5,3.2c1.4,0.8,3.1,1.1,5.1,0.8c0.5,0,1.1-0.1,1.7-0.3c2.7-0.7,5.1-2.4,6.6-4.4c1.6-1.9,2.4-4.2,2.1-6.3
	c-0.1-0.3-0.1-0.6-0.2-0.9c-0.4-1.4-1.3-2.5-2.5-3.2c-1.4-0.8-3.1-1.1-5.1-0.9C148.3,158.1,147.7,158.2,147.1,158.4z M172.9,144.1
	l6-1.1l0.1,1.2c0,1.9,0.1,3.9,0.1,5.9c2-0.6,4.1-1.1,6.2-1.6l1.3,6.1c-2.4,0.5-4.8,1.1-7.2,1.8c0.1,1.2,0.1,2.2,0.2,3.4
	c0.3,5.2,0.8,10.4,1.3,15.6l0.1,0.8l-6.4,2l-0.2-1.4c-0.1-1.8-0.2-3.6-0.3-5.4c-0.3-4.4-0.6-8.8-0.8-13.2c-1.6,0.6-3.1,1.1-4.6,1.7
	l-2.1-5.8c2.2-0.8,4.4-1.6,6.5-2.3c-0.1-2.3-0.2-4.6-0.2-7L172.9,144.1z M217.5,172.1c-3.6,2.1-8.8,3.9-13.4,4.1
	c-2.3,0.1-4.5,0-6.3-0.8c-2.2-0.7-3.9-2.1-5.1-4.1l0-0.1c-0.8-1.3-1.2-2.8-1.3-4.6c-0.3-4.3,0.8-7.9,2.6-10.8
	c2.2-3.4,5.4-5.7,8.7-6.8c1.1-0.3,2.3-0.5,3.5-0.6c2.6-0.2,5.2,0.4,7.3,1.7c2.3,1.3,4.1,3.4,4.9,6.1c0.3,0.9,0.5,1.8,0.6,2.9
	l0.1,2.5l-2.4,0.6c-3.3,0.8-6.5,1.8-9.5,2.9c-2.9,1-5.9,2.2-8.7,3.5c0.4,0.4,0.9,0.7,1.4,1c1.1,0.3,2.4,0.5,3.9,0.4
	c3.6-0.2,7.7-1.6,10.7-3.3L217.5,172.1z M198,162.2c2.2-1,4.6-1.9,7-2.7c2.3-0.8,4.7-1.6,7.1-2.3c-0.4-0.7-1-1.2-1.6-1.6
	c-1.1-0.6-2.5-0.9-3.9-0.9c-0.6,0-1.3,0.2-1.9,0.4c-2,0.6-4,2-5.4,4.2C198.8,160.1,198.4,161.1,198,162.2z"/>
</svg>
