<?xml version="1.0" encoding="utf-8"?>
<!-- Generator: Adobe Illustrator 26.0.3, SVG Export Plug-In . SVG Version: 6.00 Build 0)  -->
<svg version="1.1" id="Layer_1" xmlns="http://www.w3.org/2000/svg" xmlns:xlink="http://www.w3.org/1999/xlink" x="0px" y="0px"
	 viewBox="0 0 300 300" style="enable-background:new 0 0 300 300;" xml:space="preserve">
<style type="text/css">
	.st0{opacity:0.25;}
	.st1{fill:#FCFFD4;stroke:#000000;stroke-width:5;stroke-miterlimit:10;}
	.st2{fill:#D4EAFF;stroke:#000000;stroke-width:5;stroke-miterlimit:10;}
	.st3{fill:#D4EAFF;stroke:#000000;stroke-width:5;stroke-linejoin:round;stroke-miterlimit:10;}
	.st4{fill:#FFD4D6;stroke:#000000;stroke-width:5;stroke-miterlimit:10;}
	.st5{fill:#FFD4D6;stroke:#000000;stroke-width:5;stroke-linejoin:round;stroke-miterlimit:10;}
</style>
<polygon class="st0" points="266.3,246.7 254.7,63.3 236.6,59.3 235.2,38.3 35.6,51.9 39.6,110.6 33.5,233.9 56.2,262.3 
	231.9,271.1 233,248.8 "/>
<rect x="42.2" y="34.9" transform="matrix(0.9977 -6.808694e-02 6.808694e-02 0.9977 -8.8524 9.9947)" class="st1" width="200" height="200"/>
<g>
	<polygon class="st2" points="259.7,53.3 271.3,236.7 71.7,249.3 59.1,49.7 202.3,40.6 	"/>
	<polygon class="st3" points="259.7,53.3 203.3,56.9 202.3,40.6 	"/>
</g>
<g>
	<polygon class="st4" points="28.5,223.9 37.1,51.4 237,61.2 226.9,261.1 51.2,252.3 	"/>
	<polygon class="st5" points="28.5,223.9 52.6,225.1 51.2,252.3 	"/>
</g>
<g>
	<path d="M110.4,104.9l0.1-0.8l5.1-0.4l-0.1,1.1c-0.4,4.4-0.7,8.8-0.9,13.3c-0.3,6.1-0.4,12.3-0.5,18.5l-0.1,2.6l-0.1,0l-1.3-1.7
		l-0.3-0.3c-1.7-2.4-3.4-4.8-5.1-7.3c-1.7-2.5-3.4-5.2-5.1-7.8c-0.7-1.1-1.5-2.3-2.1-3.5c-0.1,1.4-0.1,2.8-0.2,4.2
		c-0.2,4.2-0.4,8.4-0.4,12.7l0,0.8l-5.5,1.2l0.1-1.3c0.1-4,0.3-8.1,0.5-12.1c0.3-6.4,0.7-12.8,1.2-19.2l0.2-2.7l0.1,0l1.2,1.9
		l0.3,0.4c2.3,3.5,4.6,7.1,6.8,10.8c1.7,2.7,3.4,5.4,5,8.1C109.4,117,109.9,111,110.4,104.9z"/>
	<path d="M140.4,136.1c-3.2,1.4-7.7,2.4-11.4,2.1c-1.9-0.1-3.7-0.4-5.1-1.2c-1.8-0.8-3-2.1-3.8-3.8l0-0.1c-0.5-1.1-0.7-2.5-0.6-3.9
		c0.2-3.6,1.4-6.5,3.2-8.7c2.1-2.6,5-4.2,7.8-4.8c1-0.1,1.9-0.2,3-0.2c2.2,0.1,4.3,0.9,5.9,2.1c1.8,1.3,3,3.2,3.5,5.5
		c0.2,0.8,0.2,1.5,0.2,2.4l-0.2,2.1l-2.1,0.3c-2.8,0.4-5.6,0.9-8.1,1.5c-2.5,0.6-5.1,1.3-7.5,2.1c0.3,0.4,0.7,0.7,1.1,1
		c0.9,0.4,2,0.6,3.2,0.7c3,0.2,6.6-0.6,9.2-1.7L140.4,136.1z M125.3,126.1c2-0.6,4-1.1,6-1.6c2-0.5,4.1-0.9,6.1-1.2
		c-0.3-0.6-0.7-1.1-1.2-1.5c-0.9-0.6-2-1-3.1-1.1c-0.5,0-1.1,0-1.6,0.2c-1.7,0.3-3.5,1.3-4.8,3C126,124.4,125.6,125.2,125.3,126.1z"
		/>
	<path d="M150.8,116.9c0.8,2.9,1.8,5.9,3,8.6c0.5,1.2,1.1,2.4,1.7,3.5l0.3-0.9c2.7-6,4.1-8.7,5.9-11.4l0.1,0c1.1,4,3,8,4.9,11.7
		c1.4-3.7,3.2-8.4,4.9-11.9l4.6,2.2c-1.7,3.6-3.1,7.4-4.4,10.5c-0.7,1.8-1.4,3.7-2.3,6l-1.7,4.5l-0.1,0c-2.4-3.6-4.8-7.1-6.6-11
		c-1.5,3.8-3,7.7-4.4,11.6l-0.1,0l-2.9-3.9c-1.8-2.8-3.4-5.7-4.7-8.7c-1.3-2.9-2.4-6.1-3.3-9.3L150.8,116.9z"/>
	<path d="M54.6,175.6c-2.1,0.5-4.1,1.1-6.1,1.7c-0.5,1.4-1.1,2.9-1.6,4.3l-0.2,0.6l-5.6,0.4l0.3-1.2c0.4-2.3,1.5-5,2.5-7.3
		c1.3-3.1,2.8-6.3,4.4-9.3c1.5-2.9,3.1-5.7,4.8-8.5c1.3-2.1,2.7-4.3,4.3-6.2l1.1-1.3l0.1,0.1l0.5,1.6c2.8,9.7,6,19.5,10.1,28.8
		l0.4,1l-5.1,1.4l-0.3-0.7c-1-2.2-1.9-4.5-2.7-6.8C59.4,174.5,56.9,175,54.6,175.6z M59.9,169.4c-0.8-2.2-1.5-4.3-2.2-6.5
		c-0.3-1-0.6-2-0.9-2.9c-0.6,1.1-1.2,2.2-1.8,3.2c-1.2,2.2-2.3,4.6-3.4,6.8c-0.2,0.4-0.4,0.8-0.6,1.3C54,170.5,57,169.9,59.9,169.4z
		"/>
	<path d="M91.3,167.3c-1.2-0.3-2.3-0.5-3.4-0.5c-2.8,0-5.2,1-7.2,2.4c-1.9,1.4-3.2,3.2-3.8,4.9c-0.1,0.4-0.2,0.9-0.2,1.3
		c0,0.5,0.1,0.8,0.3,1.2c0.2,0.5,0.7,0.9,1.4,1.2c0.9,0.4,2.1,0.6,3.5,0.6c3,0,6.4-0.8,9.1-2.1l2.1,4.7c-3.2,1.6-7.5,2.6-11.2,2.6
		c-2,0-3.9-0.3-5.5-1c-1.8-0.7-3.3-2-4.1-3.7c-0.5-1-0.7-2.2-0.7-3.4c0-0.8,0.2-1.8,0.4-2.7c0.8-2.7,2.8-5.5,5.6-7.5
		c2.7-2.1,6.3-3.5,10.3-3.5c1.5,0,3.1,0.2,4.8,0.7L91.3,167.3z"/>
	<path d="M115.8,168.6c-1.2-0.3-2.3-0.5-3.4-0.5c-2.8,0-5.2,1-7.2,2.4c-1.9,1.4-3.2,3.2-3.8,4.9c-0.1,0.4-0.2,0.9-0.2,1.3
		c0,0.5,0.1,0.8,0.3,1.2c0.2,0.5,0.7,0.9,1.4,1.2c0.9,0.4,2.1,0.6,3.5,0.6c3,0,6.4-0.8,9.1-2.1l2.1,4.7c-3.2,1.6-7.5,2.6-11.2,2.6
		c-2,0-3.9-0.3-5.5-1c-1.8-0.7-3.3-2-4.1-3.7c-0.5-1-0.7-2.2-0.7-3.4c0-0.8,0.2-1.8,0.4-2.7c0.8-2.7,2.8-5.5,5.6-7.5
		c2.7-2.1,6.3-3.5,10.3-3.5c1.5,0,3.1,0.2,4.8,0.7L115.8,168.6z"/>
	<path d="M135.8,163.5c2.8-0.1,5.3,0.8,7.2,2.2c2,1.5,3.4,3.6,3.9,6.2c0,0.5,0.1,1,0.1,1.5c0,3.2-1.5,6.2-3.8,8.6
		c-2.3,2.3-5.4,4-8.9,4.6c-0.8,0.2-1.5,0.2-2.3,0.2c-2.8,0-5.3-0.8-7.2-2.2c-2-1.5-3.5-3.7-3.9-6.3c-0.1-0.5-0.1-1-0.1-1.5
		c0-3.1,1.5-6.2,3.8-8.6c2.3-2.3,5.4-4,8.8-4.6C134.3,163.6,135.1,163.5,135.8,163.5z M134.4,168.8c-2.3,0.4-4.4,1.5-6,3
		c-1.4,1.5-2.3,3.3-2.3,5c0,0.3,0,0.5,0.1,0.8c0.2,1.2,0.8,2.2,1.8,2.9c1.1,0.8,2.5,1.2,4.2,1.2c0.4,0,1,0,1.5-0.1
		c2.3-0.3,4.4-1.5,5.9-3c1.5-1.5,2.3-3.2,2.4-5c-0.1-0.3,0-0.5-0.1-0.8c-0.2-1.2-0.9-2.2-1.8-2.8c-1-0.8-2.5-1.2-4.2-1.2
		C135.4,168.6,134.9,168.7,134.4,168.8z"/>
	<path d="M157.2,167.4c-0.5,2.1-0.8,4.1-0.9,5.9c-0.1,1.7,0,3.2,0.2,4.6c0.2,1.6,0.7,2.9,1.3,3.8c0.4,0.7,0.8,1.1,1.3,1.2
		c0.3,0,0.5,0,0.8,0l0.1,0c2.3-0.5,4-3,5.1-6.2c0.8-2.3,1.3-4.7,1.4-7c0.1-1.4,0-2.8-0.2-4c-0.1-0.2,0-0.3-0.1-0.5l5-0.9
		c0.1,0.3,0.1,0.5,0.1,0.6c0.2,1.5,0.4,3.2,0.3,5c-0.1,2.8-0.7,5.8-1.6,8.4c-1.7,4.8-4.7,8.7-9,9.5c-0.1,0-0.3,0.1-0.3,0.1
		c-1,0.1-1.9,0.1-2.7-0.1c-1.9-0.4-3.5-1.6-4.6-3.4c-0.9-1.5-1.6-3.5-2-5.8c-0.3-1.8-0.4-3.8-0.3-5.9c0.1-2,0.4-4.2,0.9-6.4
		L157.2,167.4z"/>
	<path d="M177.2,166.4l5.1-0.1l0,0.8c-0.1,0.5-0.1,1-0.2,1.5c4.2-2.5,7.6-3.7,10.1-3.5c1.7,0.1,3,0.7,4.1,2c1.8,1.9,2.3,5.4,2.1,10
		c-0.1,3-0.7,6.6-1.4,10.7l-5.1-0.8c0.8-4.4,1.3-8.1,1.4-10.9c0.1-2.8-0.1-4.7-0.9-5.6c-1.1-1.3-4.4,0.1-10.9,4.5
		c0,0.7-0.1,1.5-0.1,2.2c-0.2,3.3-0.2,6.7-0.2,10l0,0.5l-5.4,0.8l0-0.9c0-1.8,0.1-3.5,0.2-5.3c0.3-5,0.6-10.2,1.1-15.2L177.2,166.4z
		"/>
	<path d="M209.2,161.9l5.1-0.3l-0.1,1c-0.1,1.6-0.3,3.3-0.4,4.9c1.7-0.3,3.5-0.5,5.3-0.8l0.5,5.2c-2,0.2-4.1,0.5-6.1,0.8
		c0,1-0.1,1.9-0.1,2.8c-0.2,4.3-0.3,8.7-0.4,13.1l0,0.7l-5.5,1.1l0-1.2c0.1-1.5,0.1-3,0.2-4.5c0.2-3.6,0.4-7.4,0.6-11
		c-1.4,0.3-2.7,0.6-4,1l-1.2-5c1.9-0.5,3.8-0.9,5.6-1.3c0.2-1.9,0.3-3.8,0.5-5.8L209.2,161.9z"/>
</g>
</svg>
