<?xml version="1.0" encoding="utf-8"?>
<!-- Generator: Adobe Illustrator 26.0.3, SVG Export Plug-In . SVG Version: 6.00 Build 0)  -->
<svg version="1.1" id="Layer_1" xmlns="http://www.w3.org/2000/svg" xmlns:xlink="http://www.w3.org/1999/xlink" x="0px" y="0px"
	 viewBox="0 0 300 300" style="enable-background:new 0 0 300 300;" xml:space="preserve">
<style type="text/css">
	.st0{opacity:0.25;}
	.st1{fill:#D4EAFF;stroke:#000000;stroke-width:5;stroke-miterlimit:10;}
	.st2{fill:#D4EAFF;stroke:#000000;stroke-width:5;stroke-linejoin:round;stroke-miterlimit:10;}
	.st3{fill:#FFD4D6;stroke:#000000;stroke-width:5;stroke-miterlimit:10;}
	.st4{fill:#FFD4D6;stroke:#000000;stroke-width:5;stroke-linejoin:round;stroke-miterlimit:10;}
	.st5{fill:#FCFFD4;stroke:#000000;stroke-width:5;stroke-miterlimit:10;}
</style>
<polygon class="st0" points="266.3,246.7 254.7,63.3 236.6,59.3 235.2,38.3 35.6,51.9 39.6,110.6 33.5,233.9 56.2,262.3 
	231.9,271.1 233,248.8 "/>
<g>
	<polygon class="st1" points="259.7,53.3 271.3,236.7 71.7,249.3 59.1,49.7 202.3,40.6 	"/>
	<polygon class="st2" points="259.7,53.3 203.3,56.9 202.3,40.6 	"/>
</g>
<g>
	<polygon class="st3" points="28.5,223.9 37.1,51.4 237,61.2 226.9,261.1 51.2,252.3 	"/>
	<polygon class="st4" points="28.5,223.9 52.6,225.1 51.2,252.3 	"/>
</g>
<rect x="42.2" y="34.9" transform="matrix(0.9977 -6.808694e-02 6.808694e-02 0.9977 -8.8524 9.9947)" class="st5" width="200" height="200"/>
<path d="M98.9,89.8c-2.4-1-5-1.5-7.5-1.5c-2.3,0-4.6,0.4-6.7,1.4c-1.6,0.8-3.1,2.1-4.2,3.8c-0.7,1.2-1.2,2.4-0.9,3.3
	c0.1,0.6,0.6,1,1.1,1.6c0.8,0.6,1.9,1.2,3,1.8c1.7,0.8,4.3,1.4,7.1,2.1c4,1.2,8.1,2.2,11.1,4.2c2.5,1.7,4.1,3.6,4.9,5.7
	c0.4,0.9,0.5,1.9,0.6,2.8c0.1,1.6-0.2,3.2-0.7,4.8c-0.9,2.2-2.4,4.3-4.5,6c-3.2,2.6-7.6,4.6-12.5,5c-2.9,0.3-5.9,0-8.7-0.7
	c-3.6-0.8-6.9-2.1-8.8-3.2l3.7-6.7c1.4,0.8,3.9,1.8,6.8,2.3c2,0.4,4.3,0.8,6.4,0.5c3.2-0.3,6.1-1.6,8.1-3.3c1.1-0.9,1.9-2,2.3-2.9
	c0.2-0.6,0.3-1.3,0.1-1.9c-0.2-0.7-0.9-1.4-2-2.1c-1.7-1.2-5.3-2.1-8.8-3.1c-3-0.9-5.9-1.6-8.3-2.7c-1.8-0.8-3.5-1.8-4.8-3
	c-1.7-1.4-2.9-3.2-3.5-5.3c-0.8-3.2,0-6.4,1.8-9.3c1.8-2.9,4.7-5.5,7.5-6.9c3.2-1.5,6.6-2.2,10-2.1c3.6-0.1,7.2,0.7,10.4,2.1
	L98.9,89.8z M122.4,86.2c0.2,2.2-1.7,4.2-4.1,4.3c-2.4,0.2-4.5-1.5-4.7-3.7c-0.2-2.2,1.7-4.2,4.1-4.3
	C120.2,82.3,122.3,84,122.4,86.2z M115,95.6l7.6-1.1l0,1.2c0,4.5,0.2,9.1,0.5,13.6c0.4,5.5,0.9,10.9,1.5,16.4l0.1,0.8l-8,2.1
	l-0.1-1.3c-0.3-2.7-0.5-5.3-0.6-7.9c-0.5-7.6-0.8-15.2-1-22.8L115,95.6z M166.8,90.2c0,0.7,0.7,11.7,1.1,18.1
	c0.4,5.7,0.8,11.3,0.8,11.9c0.1,0.8,0.1,1.4,0.1,2.1c0.3,7.1,0.7,14.3-3.8,19.1c-2.2,2.3-4.9,3.9-8,4.6c-0.9,0.3-1.9,0.4-2.9,0.5
	c-1.3,0.1-2.8,0-4.2-0.3c-2.3-0.5-4.6-1.6-6.6-3.4c-2-1.8-3.5-4.4-4.3-7.7l7.5-1.9c0.4,1.8,1.2,3,2.1,3.9c0.8,0.8,1.8,1.3,2.9,1.5
	c1.2,0.2,2.4,0.2,3.5-0.1c1.6-0.4,3.1-1.2,4.2-2.4c2.3-2.5,2-7.9,1.7-13.4l0-0.6c-3.9,1.6-8.3,2.8-12.3,3.1c-3.1,0.3-6,0.2-8.6-0.6
	c-2.9-0.9-5.4-2.4-7-5c-0.9-1.4-1.4-3-1.6-4.8c-0.5-5.8,3-11.3,8.7-15.6c5.5-4.1,13.1-7.2,21.3-8.6L166.8,90.2z M160.3,108.8
	c-0.2-3.5-0.5-7.2-0.7-9.8c-5.7,1.3-10.8,3.6-14.6,6.4c-3.8,2.8-5.9,5.9-5.7,8.8c0,0.6,0.2,1.1,0.4,1.5c0.5,0.7,1.3,1.3,2.5,1.7
	c1.7,0.5,3.6,0.5,5.8,0.3c4.2-0.4,8.7-1.8,12.5-3.8L160.3,108.8z M175,91.5l7.5-1.1l0.1,1.1c0,0.8,0,1.4,0,2.2
	c5.9-4.4,10.6-6.8,14.4-7c2.6-0.2,4.7,0.5,6.5,2.3c3,2.6,4.4,7.6,4.8,14.6c0.3,4.5,0.2,10-0.1,16.2l-7.7-0.3
	c0.4-6.8,0.5-12.4,0.2-16.5c-0.3-4.2-1-7.1-2.3-8.2c-1.8-1.7-6.6,0.9-15.4,8.7c0.1,1.1,0.2,2.2,0.2,3.3c0.3,5,0.9,9.9,1.4,15
	l0.1,0.8l-7.9,2.1l-0.2-1.3c-0.3-2.7-0.5-5.3-0.6-7.9c-0.5-7.6-0.8-15.2-1-22.8L175,91.5z M128.9,169.9c0.2,2.2-1.7,4.2-4.1,4.3
	c-2.4,0.2-4.5-1.5-4.7-3.7c-0.2-2.2,1.7-4.2,4.1-4.3C126.6,166.1,128.7,167.7,128.9,169.9z M121.4,179.3l7.6-1.1l0,1.2
	c0,4.5,0.2,9.1,0.5,13.6c0.4,5.5,0.9,10.9,1.5,16.4l0.1,0.8l-8,2.1l-0.1-1.3c-0.3-2.7-0.5-5.3-0.6-7.9c-0.5-7.6-0.8-15.2-1-22.8
	L121.4,179.3z M138.8,178.1l7.5-1.1l0.1,1.1c0,0.8,0,1.4,0,2.2c5.9-4.4,10.6-6.8,14.4-7c2.6-0.2,4.7,0.5,6.5,2.3
	c3,2.6,4.4,7.6,4.8,14.6c0.3,4.5,0.2,10-0.1,16.2l-7.7-0.3c0.4-6.8,0.5-12.3,0.2-16.5c-0.3-4.2-1-7.1-2.3-8.2
	c-1.8-1.7-6.6,0.9-15.4,8.7c0.1,1.1,0.2,2.2,0.2,3.3c0.3,5,0.9,9.9,1.4,15l0.1,0.8l-7.9,2.1l-0.2-1.3c-0.3-2.7-0.5-5.3-0.6-7.9
	c-0.5-7.6-0.8-15.2-1-22.8L138.8,178.1z"/>
</svg>
