<?xml version="1.0" encoding="utf-8"?>
<!-- Generator: Adobe Illustrator 26.0.3, SVG Export Plug-In . SVG Version: 6.00 Build 0)  -->
<svg version="1.1" id="Layer_1" xmlns="http://www.w3.org/2000/svg" xmlns:xlink="http://www.w3.org/1999/xlink" x="0px" y="0px"
	 viewBox="0 0 300 300" style="enable-background:new 0 0 300 300;" xml:space="preserve">
<style type="text/css">
	.st0{opacity:0.25;}
	.st1{fill:#FFD4D6;stroke:#000000;stroke-width:5;stroke-miterlimit:10;}
	.st2{fill:#FFD4D6;stroke:#000000;stroke-width:5;stroke-linejoin:round;stroke-miterlimit:10;}
	.st3{fill:#FCFFD4;stroke:#000000;stroke-width:5;stroke-miterlimit:10;}
	.st4{fill:#D4EAFF;stroke:#000000;stroke-width:5;stroke-miterlimit:10;}
	.st5{fill:#D4EAFF;stroke:#000000;stroke-width:5;stroke-linejoin:round;stroke-miterlimit:10;}
</style>
<polygon class="st0" points="266.3,246.7 254.7,63.3 236.6,59.3 235.2,38.3 35.6,51.9 39.6,110.6 33.5,233.9 56.2,262.3 
	231.9,271.1 233,248.8 "/>
<g>
	<polygon class="st1" points="28.5,223.9 37.1,51.4 237,61.2 226.9,261.1 51.2,252.3 	"/>
	<polygon class="st2" points="28.5,223.9 52.6,225.1 51.2,252.3 	"/>
</g>
<rect x="42.2" y="34.9" transform="matrix(0.9977 -6.808694e-02 6.808694e-02 0.9977 -8.8524 9.9947)" class="st3" width="200" height="200"/>
<g>
	<polygon class="st4" points="259.7,53.3 271.3,236.7 71.7,249.3 59.1,49.7 202.3,40.6 	"/>
	<polygon class="st5" points="259.7,53.3 203.3,56.9 202.3,40.6 	"/>
</g>
<g>
	<path d="M135.4,122.5c1.9-0.6,4.1-1.2,6.1-1.5l0.9-0.2l0.9,5.2l-1,0.1c-5.3,0.6-10,2.9-14.7,5.3l-1.1,0.6l-0.3-1.2
		c-0.6-3.1-1-6.3-1.2-9.6c-0.2-3.8-0.2-7.7-0.1-11.4c0-2.9,0.1-5.8,0.3-8.7l0-0.6l0.6-0.2c4.4-1.8,9-3.1,13.8-3.6l1-0.1l0.3,5.2
		l-0.9,0.1c-3,0.4-6.7,1.1-9.5,2.2c-0.1,1.3-0.2,2.6-0.2,3.8c-0.1,1.5-0.1,3-0.1,4.4c2.5-0.9,7-2.2,9.8-2.7l1-0.2l0.1,1.1
		c0.1,1.1,0.1,2.2,0.2,3.3l0.1,0.8l-0.8,0.1c-3,0.4-7.5,1.7-10.2,2.8c0,1.1,0.1,2.2,0.1,3.3c0.1,1.1,0.1,2.2,0.3,3.3
		C132.1,123.6,133.8,122.9,135.4,122.5z"/>
	<path d="M163.5,94.2l5.1-1l0,1.3c0.1,4.5,0.3,9,0.6,13.6c0.4,5.9,0.9,11.8,1.4,17.7l0.1,0.8l-5.3,1.9l-0.1-1.3
		c0-0.6-0.1-1.1-0.1-1.6c-2.7,1.1-5.6,1.9-8.3,2.1c-2,0.2-4,0.1-5.6-0.4c-2-0.5-3.5-1.6-4.6-3.2c-0.6-0.9-0.9-2.1-1-3.3
		c-0.3-3.8,2-7.5,5.9-10.4c3.2-2.4,7.6-4.3,12.4-5.4c-0.1-3.3-0.2-6.5-0.4-9.8L163.5,94.2z M164.2,110.2c-3.7,0.9-7.1,2.4-9.5,4.3
		c-2.5,1.9-4,4-3.9,5.9c0.1,0.4,0.2,0.8,0.3,1c0.3,0.5,0.9,0.8,1.6,1.1c1,0.3,2.3,0.4,3.7,0.2c2.7-0.2,5.8-1.2,8.3-2.5
		C164.6,116.8,164.4,113.4,164.2,110.2z"/>
	<path d="M181.1,99c0.1,1.5-1.2,2.8-2.8,2.9c-1.6,0.1-3-1-3.1-2.5s1.2-2.8,2.8-2.9C179.6,96.4,181,97.5,181.1,99z M176.1,105.2
		l5.1-0.7l0,0.8c0,3,0.1,6.1,0.3,9.1c0.2,3.6,0.6,7.3,1,11l0.1,0.5l-5.4,1.4l-0.1-0.9c-0.2-1.8-0.3-3.5-0.4-5.3
		c-0.3-5-0.5-10.2-0.6-15.2L176.1,105.2z"/>
	<path d="M191.6,98.2l5-0.9l0.1,1c0,1.6,0.1,3.3,0.1,4.9c1.7-0.5,3.4-0.9,5.2-1.4l1.1,5.1c-2,0.4-4,1-6,1.5c0.1,1,0.1,1.9,0.2,2.8
		c0.3,4.3,0.7,8.7,1.1,13l0.1,0.7l-5.3,1.7l-0.1-1.1c-0.1-1.5-0.2-3-0.3-4.5c-0.2-3.6-0.5-7.3-0.6-11c-1.3,0.5-2.6,0.9-3.8,1.4
		l-1.8-4.8c1.8-0.7,3.6-1.3,5.4-1.9c-0.1-1.9-0.2-3.8-0.2-5.8L191.6,98.2z"/>
	<path d="M90.7,174c-2,0.7-3.9,1.5-5.9,2.4c-0.4,1.5-0.8,3-1.1,4.5l-0.1,0.6l-5.5,1l0.1-1.2c0.2-2.4,1-5.2,1.6-7.5
		c0.9-3.3,2.1-6.5,3.4-9.7c1.2-3,2.4-6.1,3.9-9c1-2.2,2.2-4.6,3.6-6.6l0.9-1.4l0.1,0.1l0.7,1.6c3.9,9.3,8.2,18.7,13.3,27.4l0.5,0.9
		l-4.9,2l-0.4-0.7c-1.2-2.1-2.4-4.3-3.5-6.4C95.2,172.4,92.9,173.2,90.7,174z M95.2,167.2c-1-2.1-2-4.1-2.9-6.2
		c-0.4-0.9-0.8-1.9-1.3-2.8c-0.5,1.1-0.9,2.3-1.4,3.4c-0.9,2.4-1.8,4.8-2.6,7.2c-0.2,0.5-0.3,0.9-0.4,1.3
		C89.5,169.1,92.3,168.1,95.2,167.2z"/>
	<path d="M126.2,161.7c-1.2-0.2-2.4-0.2-3.5-0.1c-2.7,0.3-5.1,1.5-6.9,3.2c-1.8,1.6-2.9,3.6-3.2,5.3c0,0.5-0.1,0.9,0,1.3
		c0.1,0.4,0.2,0.8,0.4,1.1c0.3,0.5,0.8,0.8,1.5,1c1,0.3,2.2,0.4,3.5,0.2c3-0.4,6.3-1.6,8.8-3.1l2.7,4.4c-3,1.9-7.2,3.4-10.9,3.8
		c-2,0.2-3.9,0.1-5.5-0.4c-1.9-0.5-3.5-1.6-4.5-3.2c-0.6-0.9-1-2.1-1.1-3.3c-0.1-0.8,0-1.8,0.1-2.7c0.5-2.8,2.2-5.8,4.7-8.1
		c2.5-2.4,5.8-4.2,9.8-4.6c1.5-0.2,3.1-0.1,4.9,0.1L126.2,161.7z"/>
	<path d="M150.6,160.2c-1.2-0.2-2.4-0.2-3.5-0.1c-2.7,0.3-5.1,1.5-6.9,3.2c-1.8,1.6-2.9,3.6-3.2,5.3c0,0.5-0.1,0.9,0,1.3
		c0.1,0.4,0.2,0.8,0.4,1.1c0.3,0.5,0.8,0.8,1.5,1c1,0.3,2.2,0.4,3.5,0.2c3-0.4,6.3-1.6,8.8-3.1l2.7,4.4c-3,1.9-7.2,3.4-10.9,3.8
		c-2,0.2-3.9,0.1-5.5-0.4c-1.9-0.5-3.5-1.6-4.5-3.2c-0.6-0.9-1-2.1-1.1-3.3c-0.1-0.8,0-1.8,0.1-2.7c0.5-2.8,2.2-5.8,4.7-8.1
		c2.5-2.4,5.8-4.2,9.8-4.6c1.5-0.2,3.1-0.1,4.9,0.1L150.6,160.2z"/>
	<path d="M170,152.9c2.7-0.4,5.3,0.2,7.4,1.4c2.2,1.3,3.8,3.2,4.5,5.7c0.1,0.5,0.2,1,0.3,1.5c0.3,3.2-0.8,6.3-2.8,9
		c-2,2.6-4.9,4.6-8.3,5.5c-0.8,0.2-1.5,0.3-2.2,0.5c-2.7,0.3-5.3-0.2-7.4-1.4c-2.2-1.3-3.9-3.3-4.5-5.8c-0.2-0.4-0.3-0.9-0.3-1.5
		c-0.4-3.1,0.8-6.3,2.8-9c2-2.6,4.9-4.5,8.2-5.5C168.5,153.1,169.2,152.9,170,152.9z M169.1,158.3c-2.3,0.7-4.2,2-5.6,3.7
		c-1.2,1.6-1.9,3.5-1.7,5.2c0,0.3,0.1,0.5,0.2,0.8c0.3,1.1,1,2.1,2.1,2.7c1.1,0.6,2.6,0.9,4.3,0.7c0.4,0,1-0.1,1.5-0.3
		c2.3-0.6,4.2-2,5.5-3.7c1.3-1.6,2-3.5,1.8-5.2c-0.1-0.3-0.1-0.5-0.2-0.8c-0.3-1.1-1.1-2-2.1-2.6c-1.1-0.7-2.6-0.9-4.3-0.8
		C170.1,158,169.6,158.1,169.1,158.3z"/>
	<path d="M191.7,154.3c-0.2,2.1-0.3,4.1-0.2,6c0.1,1.7,0.4,3.2,0.7,4.5c0.4,1.6,1,2.8,1.7,3.6c0.5,0.6,1,1,1.5,1.1
		c0.3,0,0.5,0,0.8-0.1l0.1,0c2.2-0.7,3.6-3.4,4.4-6.7c0.6-2.3,0.7-4.9,0.6-7.2c-0.1-1.4-0.3-2.7-0.6-3.9c-0.1-0.2-0.1-0.3-0.2-0.4
		l4.9-1.5c0.1,0.3,0.2,0.4,0.2,0.6c0.4,1.5,0.7,3.2,0.8,4.9c0.2,2.8-0.1,5.8-0.7,8.6c-1.2,4.9-3.6,9.2-7.9,10.5
		c-0.1,0-0.3,0.1-0.3,0.1c-0.9,0.3-1.8,0.3-2.7,0.2c-1.9-0.2-3.7-1.2-5-2.9c-1.1-1.4-2-3.3-2.6-5.5c-0.5-1.8-0.8-3.7-0.9-5.8
		c-0.1-2-0.1-4.2,0.2-6.5L191.7,154.3z"/>
	<path d="M211.4,151.1l5-0.7l0,0.8c0,0.5,0,1,0,1.5c3.9-2.9,7.1-4.5,9.6-4.6c1.7-0.1,3.1,0.4,4.3,1.5c2,1.7,2.9,5.1,3.2,9.7
		c0.2,3,0.1,6.7-0.2,10.8l-5.1-0.3c0.3-4.5,0.4-8.2,0.2-11c-0.2-2.8-0.6-4.7-1.5-5.5c-1.2-1.1-4.4,0.6-10.3,5.7
		c0,0.7,0.1,1.5,0.1,2.2c0.2,3.3,0.5,6.6,0.9,10l0,0.5l-5.3,1.4l-0.1-0.9c-0.2-1.8-0.3-3.5-0.4-5.3c-0.3-5-0.5-10.2-0.6-15.2
		L211.4,151.1z"/>
	<path d="M242.7,143l5-0.9l0.1,1c0,1.6,0.1,3.3,0.1,4.9c1.7-0.5,3.4-0.9,5.2-1.4l1.1,5.1c-2,0.4-4,1-6,1.5c0.1,1,0.1,1.9,0.2,2.8
		c0.3,4.3,0.7,8.7,1.1,13l0.1,0.7l-5.3,1.7l-0.1-1.1c-0.1-1.5-0.2-3-0.3-4.5c-0.2-3.6-0.5-7.3-0.6-11c-1.3,0.5-2.6,0.9-3.8,1.4
		l-1.8-4.8c1.8-0.7,3.6-1.3,5.4-1.9c-0.1-1.9-0.2-3.8-0.2-5.8L242.7,143z"/>
</g>
</svg>
