<?xml version="1.0" encoding="utf-8"?>
<!-- Generator: Adobe Illustrator 26.0.2, SVG Export Plug-In . SVG Version: 6.00 Build 0)  -->
<svg version="1.1" id="Layer_1" xmlns="http://www.w3.org/2000/svg" xmlns:xlink="http://www.w3.org/1999/xlink" x="0px" y="0px"
	 viewBox="0 0 600 300" style="enable-background:new 0 0 600 300;" xml:space="preserve">
<style type="text/css">
	.st0{opacity:0.25;}
	.st1{fill:#FCFFD4;stroke:#000000;stroke-width:5;stroke-miterlimit:10;}
	.st2{fill:#FFD4D6;stroke:#000000;stroke-width:5;stroke-miterlimit:10;}
	.st3{fill:#D4EAFF;stroke:#000000;stroke-width:5;stroke-miterlimit:10;}
	.st4{fill:#FFD4D6;stroke:#000000;stroke-width:5;stroke-linejoin:round;stroke-miterlimit:10;}
	.st5{fill:#D4EAFF;stroke:#000000;stroke-width:5;stroke-linejoin:round;stroke-miterlimit:10;}
</style>
<polygon class="st0" points="366.3,276 565.9,263.3 554.3,80 496.8,67.3 387.6,74.2 385.2,38.3 185.6,51.9 187.5,79.2 43,72 
	34.4,244.5 57.2,273 232.8,281.7 234.4,249 364,240.2 "/>
<rect x="192.2" y="34.9" transform="matrix(0.9977 -6.808694e-02 6.808694e-02 0.9977 -8.5043 20.2077)" class="st1" width="200" height="200"/>
<polygon class="st2" points="29.4,234.5 38,62 237.9,71.8 227.8,271.7 52.2,263 "/>
<polygon class="st3" points="559.3,70 570.9,253.3 371.3,266 358.6,66.4 501.8,57.3 "/>
<polygon class="st4" points="29.4,234.5 53.5,235.7 52.2,263 "/>
<polygon class="st5" points="559.3,70 502.8,73.5 501.8,57.3 "/>
<g>
	<path d="M409.9,83.4l0-1.3l7.5-1.4l0,1.7c0.1,6.6,0.5,13.2,0.9,20c0.6,9.2,1.5,18.5,2.3,27.7l0.2,3.9l-0.2,0l-2.3-2.4l-0.5-0.4
		c-3-3.3-5.9-6.6-8.8-10c-3-3.5-5.9-7.1-8.9-10.8c-1.3-1.6-2.6-3.2-3.8-4.9c0.1,2.1,0.3,4.2,0.4,6.3c0.4,6.3,0.9,12.6,1.5,18.9
		l0.1,1.2l-8,2.7l-0.1-1.9c-0.5-6-0.9-12.2-1.2-18.2c-0.6-9.6-1.1-19.3-1.4-28.9l-0.2-4.1l0.2,0l2.1,2.7l0.5,0.5
		c4.1,4.8,8,9.9,12,14.9c2.9,3.8,6,7.5,8.9,11.2C410.6,101.8,410.2,92.7,409.9,83.4z"/>
	<path d="M447.2,95.1c4.1-0.5,8,0.3,11.1,2.1c3.3,1.9,5.7,4.8,6.8,8.6c0.1,0.8,0.3,1.5,0.4,2.3c0.5,4.8-1.1,9.5-4.2,13.4
		c-3,3.8-7.4,6.9-12.5,8.3c-1.1,0.4-2.2,0.5-3.3,0.7c-4.1,0.5-8-0.4-11.1-2.1c-3.3-1.9-5.8-4.9-6.8-8.7c-0.2-0.7-0.4-1.4-0.4-2.3
		c-0.6-4.7,1.1-9.5,4.2-13.4c3-3.8,7.4-6.8,12.4-8.3C444.9,95.5,446,95.2,447.2,95.1z M445.9,103.2c-3.4,1-6.4,3-8.4,5.5
		c-1.9,2.4-2.8,5.3-2.6,7.9c0,0.4,0.1,0.8,0.3,1.1c0.5,1.7,1.5,3.1,3.1,4c1.7,1,3.9,1.4,6.4,1c0.7,0,1.4-0.2,2.2-0.4
		c3.4-0.9,6.4-3,8.3-5.5c2-2.4,2.9-5.2,2.7-7.9c-0.1-0.4-0.1-0.8-0.3-1.1c-0.5-1.7-1.6-3.1-3.1-3.9c-1.7-1-3.9-1.4-6.4-1.1
		C447.4,102.8,446.6,103,445.9,103.2z"/>
	<path d="M478.1,85.3l7.5-1.3l0.1,1.5c0.1,2.4,0.1,4.9,0.2,7.4c2.6-0.7,5.1-1.4,7.8-2l1.6,7.6c-2.9,0.7-6,1.4-9,2.3
		c0.1,1.4,0.2,2.8,0.3,4.2c0.4,6.5,1,13,1.6,19.5l0.2,1l-8,2.5l-0.2-1.7c-0.1-2.3-0.3-4.5-0.4-6.8c-0.3-5.5-0.7-11-0.9-16.5
		c-2,0.7-3.9,1.4-5.7,2.1l-2.7-7.2c2.7-1,5.5-2,8.1-2.8c-0.1-2.9-0.3-5.8-0.3-8.7L478.1,85.3z"/>
	<path d="M533.9,120.3c-4.5,2.6-11,4.8-16.7,5.1c-2.9,0.2-5.6,0-7.9-0.9c-2.7-0.9-4.9-2.6-6.4-5.1l0-0.1c-1-1.6-1.5-3.6-1.6-5.8
		c-0.3-5.4,1-9.9,3.3-13.5c2.7-4.2,6.8-7.2,10.8-8.5c1.4-0.4,2.8-0.7,4.4-0.8c3.3-0.2,6.5,0.6,9.1,2.1c2.9,1.6,5.1,4.2,6.2,7.6
		c0.4,1.1,0.6,2.3,0.7,3.6l0.1,3.2l-3,0.8c-4.2,1-8.1,2.2-11.9,3.6c-3.7,1.3-7.3,2.8-10.9,4.3c0.5,0.5,1.1,0.9,1.8,1.2
		c1.4,0.4,3,0.6,4.8,0.5c4.5-0.3,9.7-2.1,13.4-4.1L533.9,120.3z M509.6,107.9c2.8-1.2,5.7-2.4,8.7-3.4c2.9-1.1,5.9-2,8.9-2.9
		c-0.5-0.8-1.2-1.5-2-2c-1.4-0.8-3.1-1.1-4.9-1.1c-0.8,0-1.6,0.2-2.4,0.5c-2.6,0.7-5,2.5-6.7,5.2C510.5,105.3,510,106.5,509.6,107.9
		z"/>
</g>
<g>
	<path d="M243.2,97l7.5-1.1l0,1.2c0.1,1.2,0.1,2.5,0.2,3.7c4.5-1.8,9.1-3.7,13.6-5.4l0.8-0.3l3.6,6.7l-1.1,0.5
		c-5.6,2.1-11.1,4.4-16.6,6.9c0.1,1.1,0.1,2.1,0.2,3.2c0.3,5,0.9,9.9,1.4,14.9l0.1,0.8l-8,2.1l-0.1-1.3c-0.3-2.7-0.5-5.3-0.6-7.9
		c-0.5-7.6-0.8-15.2-1-22.8L243.2,97z"/>
	<path d="M307.2,122.2c-4.5,2.6-11,4.9-16.7,5.2c-2.9,0.2-5.6,0-7.9-0.9c-2.8-0.9-4.9-2.6-6.4-5l0-0.1c-1-1.6-1.5-3.6-1.6-5.8
		c-0.4-5.4,1-9.9,3.2-13.5c2.7-4.2,6.7-7.2,10.8-8.5c1.4-0.4,2.8-0.7,4.4-0.8c3.3-0.2,6.5,0.5,9.1,2.1c2.9,1.6,5.1,4.2,6.2,7.6
		c0.4,1.1,0.6,2.3,0.7,3.6l0.1,3.2l-3,0.8c-4.2,1.1-8.1,2.3-11.9,3.7c-3.7,1.3-7.3,2.8-10.9,4.4c0.5,0.5,1.1,0.9,1.8,1.2
		c1.4,0.4,3,0.6,4.8,0.4c4.5-0.3,9.7-2.1,13.4-4.2L307.2,122.2z M282.8,109.9c2.8-1.3,5.7-2.4,8.7-3.5c2.9-1.1,5.9-2,8.8-2.9
		c-0.5-0.8-1.3-1.5-2.1-2c-1.4-0.8-3.2-1.1-4.9-1.1c-0.8,0.1-1.6,0.2-2.4,0.5c-2.5,0.8-5,2.6-6.7,5.3
		C283.7,107.3,283.2,108.6,282.8,109.9z"/>
	<path d="M321.3,82.7l7.5-1.4l0.1,1.5c0.1,2.4,0.1,4.9,0.2,7.4c2.5-0.8,5.1-1.4,7.7-2.1l1.7,7.6c-2.9,0.7-6,1.5-9,2.3
		c0.1,1.4,0.2,2.8,0.3,4.2c0.4,6.5,1.1,13,1.7,19.5l0.2,1l-8,2.6l-0.2-1.7c-0.2-2.3-0.3-4.5-0.5-6.8c-0.4-5.5-0.8-11-1-16.5
		c-2,0.7-3.8,1.4-5.7,2.1l-2.7-7.2c2.7-1.1,5.4-2,8.1-2.9c-0.1-2.9-0.3-5.8-0.3-8.7L321.3,82.7z"/>
</g>
<g>
	<path d="M142.9,89.4c-2.2-1.3-4.8-2.1-7.3-2.4c-2.3-0.3-4.6-0.1-6.9,0.6c-1.7,0.6-3.4,1.8-4.6,3.3c-0.8,1.1-1.5,2.2-1.3,3.2
		c0.1,0.6,0.4,1.1,0.9,1.7c0.7,0.7,1.8,1.4,2.8,2.2c1.6,0.9,4.1,1.9,6.8,2.9c3.9,1.6,7.8,3.2,10.5,5.4c2.3,1.9,3.6,4,4.2,6.3
		c0.2,1,0.3,1.9,0.2,2.9c-0.1,1.6-0.5,3.1-1.3,4.6c-1.2,2.1-2.9,4-5.2,5.4c-3.5,2.2-8.1,3.6-13,3.5c-2.9,0-5.8-0.7-8.6-1.7
		c-3.5-1.2-6.6-2.9-8.3-4.2l4.4-6.2c1.3,0.9,3.6,2.2,6.5,3.1c2,0.7,4.2,1.3,6.3,1.3c3.2,0.1,6.2-0.8,8.5-2.3
		c1.2-0.8,2.1-1.7,2.6-2.7c0.3-0.6,0.4-1.2,0.3-1.9c-0.2-0.7-0.7-1.5-1.7-2.3c-1.6-1.4-5.1-2.8-8.4-4.1c-2.9-1.2-5.7-2.3-7.9-3.7
		c-1.7-1-3.3-2.2-4.4-3.6c-1.6-1.6-2.5-3.5-2.9-5.7c-0.4-3.3,0.8-6.4,2.9-9c2.2-2.7,5.3-4.9,8.3-5.9c3.3-1.1,6.8-1.4,10.1-0.9
		c3.5,0.4,7,1.5,10.1,3.3L142.9,89.4z"/>
	<path d="M185.6,127.9c-4.8,2.1-11.5,3.6-17.2,3.2c-2.9-0.1-5.5-0.7-7.7-1.8c-2.6-1.2-4.6-3.1-5.8-5.8l0-0.1c-0.8-1.7-1.1-3.7-1-5.9
		c0.3-5.4,2.1-9.7,4.8-13c3.2-3.9,7.5-6.4,11.7-7.2c1.5-0.2,2.9-0.3,4.4-0.3c3.3,0.2,6.4,1.3,8.8,3.1c2.7,2,4.6,4.7,5.3,8.2
		c0.2,1.2,0.4,2.3,0.3,3.7l-0.3,3.2l-3.1,0.4c-4.3,0.6-8.3,1.3-12.2,2.3c-3.8,0.9-7.6,1.9-11.3,3.1c0.5,0.6,1,1,1.7,1.4
		c1.3,0.5,2.9,0.9,4.8,1c4.5,0.2,9.9-1,13.8-2.6L185.6,127.9z M162.8,112.8c2.9-0.9,5.9-1.7,9.1-2.4c3-0.7,6.1-1.3,9.1-1.9
		c-0.4-0.9-1.1-1.6-1.8-2.2c-1.3-0.9-3-1.5-4.7-1.7c-0.8,0-1.6,0-2.4,0.3c-2.6,0.4-5.3,1.9-7.2,4.4
		C163.9,110.3,163.3,111.5,162.8,112.8z"/>
	<path d="M223.3,108.1c-1.8-0.5-3.5-0.8-5.2-0.7c-4.1,0-7.9,1.4-10.8,3.6c-2.9,2.2-4.9,4.9-5.7,7.4c-0.1,0.7-0.3,1.3-0.3,1.9
		c0.1,0.7,0.1,1.3,0.4,1.8c0.3,0.8,1.1,1.3,2.1,1.7c1.4,0.6,3.2,0.9,5.2,0.9c4.5-0.1,9.7-1.2,13.6-3.2l3.2,7
		c-4.8,2.4-11.2,3.9-16.8,3.9c-3-0.1-5.8-0.5-8.2-1.5c-2.7-1.1-4.9-2.9-6.2-5.6c-0.7-1.5-1.1-3.2-1.1-5.1c0-1.3,0.2-2.7,0.6-4
		c1.3-4.1,4.3-8.2,8.4-11.3c4.1-3.2,9.4-5.2,15.4-5.2c2.3,0,4.7,0.3,7.3,1L223.3,108.1z"/>
</g>
</svg>
